<?xml version="1.0" standalone="no"?><!DOCTYPE svg PUBLIC "-//W3C//DTD SVG 1.1//EN" "http://www.w3.org/Graphics/SVG/1.1/DTD/svg11.dtd"><svg t="1591065166672" class="icon" viewBox="0 0 1024 1024" version="1.1" xmlns="http://www.w3.org/2000/svg" p-id="5647" xmlns:xlink="http://www.w3.org/1999/xlink" width="200" height="200"><defs><style type="text/css"></style></defs><path d="M978.944 94.122667L930.133333 45.226667a9.557333 9.557333 0 0 0-13.141333 0L829.44 132.864a229.290667 229.290667 0 0 0-129.024-39.424c-58.88 0-117.76 22.442667-162.816 67.413333L420.352 278.101333a9.216 9.216 0 0 0 0 12.970667L733.013333 603.733333a9.045333 9.045333 0 0 0 6.570667 2.645334c2.304 0 4.693333-0.853333 6.570667-2.56L863.402667 486.4a230.4 230.4 0 0 0 27.904-291.669333l87.637333-87.552a9.386667 9.386667 0 0 0 0-13.141334zM589.056 551.936a9.216 9.216 0 0 0-12.970667 0l-76.629333 76.714667-103.936-103.936 76.8-76.8a9.216 9.216 0 0 0 0-12.970667l-41.984-41.813333a9.216 9.216 0 0 0-12.970667 0l-76.8 76.714666-49.493333-49.493333a9.045333 9.045333 0 0 0-6.485333-2.645333 9.728 9.728 0 0 0-6.570667 2.56L160.853333 537.6a230.4 230.4 0 0 0-27.904 291.669333L45.226667 916.906667a9.216 9.216 0 0 0 0 12.970666l48.810666 48.810667a9.557333 9.557333 0 0 0 13.141334 0l87.552-87.637333c38.741333 26.453333 83.882667 39.509333 129.024 39.509333 58.88 0 117.76-22.442667 162.816-67.413333L603.904 745.813333a9.216 9.216 0 0 0 0-13.056l-49.493333-49.493333 76.8-76.714667a9.216 9.216 0 0 0 0-12.970666l-42.154667-41.728z" p-id="5648"></path></svg>