<?xml version="1.0" standalone="no"?><!DOCTYPE svg PUBLIC "-//W3C//DTD SVG 1.1//EN" "http://www.w3.org/Graphics/SVG/1.1/DTD/svg11.dtd"><svg t="1591064366544" class="icon" viewBox="0 0 1024 1024" version="1.1" xmlns="http://www.w3.org/2000/svg" p-id="3338" xmlns:xlink="http://www.w3.org/1999/xlink" width="200" height="200"><defs><style type="text/css"></style></defs><path d="M862.549333 1024H142.933333A100.437333 100.437333 0 0 1 42.666667 923.904V100.096C42.666667 44.885333 87.722667 0 142.933333 0h719.701334c55.210667 0 100.266667 45.056 100.266666 100.096v823.637333A100.522667 100.522667 0 0 1 862.549333 1024z m-34.389333-630.272V303.445333a23.893333 23.893333 0 0 0-23.808-23.808H200.96a23.893333 23.893333 0 0 0-23.808 23.808v90.282667a23.893333 23.893333 0 0 0 23.808 23.722667h603.562667a23.808 23.808 0 0 0 23.637333-23.722667z m-41.984 179.114667v-42.325334a23.381333 23.381333 0 0 0-23.296-23.296h-42.410667a23.381333 23.381333 0 0 0-23.296 23.296v42.410667c0 12.8 10.666667 23.296 23.296 23.296h42.325334a23.637333 23.637333 0 0 0 23.381333-23.381333z m0 148.309333v-42.325333a23.381333 23.381333 0 0 0-23.296-23.296h-42.410667a23.381333 23.381333 0 0 0-23.296 23.296v42.325333c0 12.8 10.666667 23.296 23.296 23.296h42.325334a23.466667 23.466667 0 0 0 23.381333-23.296z m0 148.309333v-42.24a23.381333 23.381333 0 0 0-23.296-23.296h-42.410667a23.381333 23.381333 0 0 0-23.296 23.296v42.24c0 12.8 10.666667 23.381333 23.296 23.381334h42.325334a23.381333 23.381333 0 0 0 23.381333-23.381334zM626.858667 572.842667v-42.325334a23.381333 23.381333 0 0 0-23.296-23.296h-42.24a23.381333 23.381333 0 0 0-23.381334 23.296v42.410667c0 12.8 10.666667 23.296 23.381334 23.296h42.24a23.552 23.552 0 0 0 23.296-23.381333z m0 148.309333v-42.325333a23.381333 23.381333 0 0 0-23.296-23.296h-42.24a23.381333 23.381333 0 0 0-23.381334 23.296v42.325333c0 12.8 10.666667 23.296 23.381334 23.296h42.24c12.8 0 23.296-10.496 23.296-23.296z m0 148.309333v-42.24a23.381333 23.381333 0 0 0-23.296-23.296h-42.24a23.381333 23.381333 0 0 0-23.381334 23.296v42.24c0 12.8 10.666667 23.381333 23.381334 23.381334h42.24c12.8 0 23.296-10.410667 23.296-23.381334zM467.626667 572.842667v-42.325334a23.381333 23.381333 0 0 0-23.296-23.296H401.92a23.381333 23.381333 0 0 0-23.296 23.296v42.410667c0 12.8 10.496 23.296 23.296 23.296h42.410667a23.552 23.552 0 0 0 23.296-23.381333z m0 148.309333v-42.325333a23.381333 23.381333 0 0 0-23.296-23.296H401.92a23.381333 23.381333 0 0 0-23.296 23.296v42.325333c0 12.8 10.496 23.296 23.296 23.296h42.410667a23.296 23.296 0 0 0 23.296-23.296z m0 148.309333v-42.24a23.381333 23.381333 0 0 0-23.296-23.296H401.92a23.381333 23.381333 0 0 0-23.296 23.296v42.24c0 12.8 10.496 23.381333 23.296 23.381334h42.410667a23.296 23.296 0 0 0 23.296-23.381334zM308.224 572.842667v-42.325334a23.466667 23.466667 0 0 0-23.296-23.296h-42.24a23.381333 23.381333 0 0 0-23.296 23.296v42.410667c0 12.8 10.496 23.296 23.296 23.296h42.24a23.552 23.552 0 0 0 23.296-23.381333z m0 148.309333v-42.325333a23.466667 23.466667 0 0 0-23.296-23.296h-42.24a23.381333 23.381333 0 0 0-23.296 23.296v42.325333c0 12.8 10.496 23.296 23.296 23.296h42.24a23.296 23.296 0 0 0 23.296-23.296z m0 148.309333v-42.24a23.466667 23.466667 0 0 0-23.296-23.296h-42.24a23.381333 23.381333 0 0 0-23.296 23.296v42.24c0 12.8 10.496 23.381333 23.296 23.381334h42.24a23.296 23.296 0 0 0 23.296-23.381334zM243.2 146.176v19.2c0 29.013333 23.808 52.906667 52.906667 52.906667h413.525333c29.013333 0 52.906667-23.808 52.906667-52.906667v-19.2a65.109333 65.109333 0 0 0-0.853334-9.642667h0.853334v-21.077333H243.114667v20.992h0.853333a52.906667 52.906667 0 0 0-0.853333 9.728z m-100.181333-57.258667c-6.058667 0-11.093333 5.12-11.093334 11.093334v823.722666c0 6.058667 5.12 11.093333 11.093334 11.093334h719.701333c6.058667 0 11.093333-5.12 11.093333-11.093334V100.096c0-5.973333-5.12-11.093333-11.093333-11.093333l-719.701333-0.085334z" p-id="3339"></path></svg>