<?xml version="1.0" standalone="no"?><!DOCTYPE svg PUBLIC "-//W3C//DTD SVG 1.1//EN" "http://www.w3.org/Graphics/SVG/1.1/DTD/svg11.dtd"><svg t="1591064662768" class="icon" viewBox="0 0 1024 1024" version="1.1" xmlns="http://www.w3.org/2000/svg" p-id="5002" xmlns:xlink="http://www.w3.org/1999/xlink" width="200" height="200"><defs><style type="text/css"></style></defs><path d="M512.09472 64c31.744 0 61.696 12.032 84.138667 33.962667l418.730666 407.125333a29.866667 29.866667 0 0 1 0 43.008 31.914667 31.914667 0 0 1-44.202666-0.085333l-46.933334-45.824c2.048 5.973333 3.242667 12.373333 3.242667 18.944v380.586666a59.392 59.392 0 0 1-59.989333 58.282667H412.084053V752.213333h231.936a31.573333 31.573333 0 0 0 32-31.146666 31.573333 31.573333 0 0 0-32-31.146667H348.084053v270.08H157.108053a59.392 59.392 0 0 1-60.074666-58.368V521.130667c0-6.570667 1.194667-12.970667 3.328-18.944l-46.933334 45.824a31.914667 31.914667 0 0 1-44.288 0 29.952 29.952 0 0 1 0-43.008l418.730667-407.04C450.39872 75.946667 480.265387 64 512.09472 64z" p-id="5003"></path></svg>