<?xml version="1.0" standalone="no"?><!DOCTYPE svg PUBLIC "-//W3C//DTD SVG 1.1//EN" "http://www.w3.org/Graphics/SVG/1.1/DTD/svg11.dtd"><svg t="1570869550868" class="icon" viewBox="0 0 1097 1024" version="1.1" xmlns="http://www.w3.org/2000/svg" p-id="1220" xmlns:xlink="http://www.w3.org/1999/xlink" width="51.421875" height="48"><defs><style type="text/css"></style></defs><path d="M831.791543 0c64.877714 0 117.76 53.394286 117.76 118.198857v91.282286c0 29.476571-9.581714 56.832-26.989714 77.165714-19.382857 22.674286-46.957714 35.181714-77.677715 35.181714a39.204571 39.204571 0 1 1 0-78.409142c24.868571 0 26.185143-28.379429 26.185143-34.011429V118.125714a39.789714 39.789714 0 0 0-39.277714-39.789714H117.770971a39.789714 39.789714 0 0 0-39.204571 39.789714v91.282286c0 5.705143 1.316571 34.011429 26.112 34.011429a39.204571 39.204571 0 1 1 0 78.409142c-30.72 0-58.294857-12.434286-77.677714-35.108571A118.125714 118.125714 0 0 1 0.010971 209.408V118.198857C0.010971 53.394286 52.820114 0 117.770971 0h714.020572z m-39.204572 224.914286v604.233143c0 65.024-52.662857 117.76-117.76 117.76H274.6624a117.76 117.76 0 0 1-117.76-117.76v-604.16c0-65.097143 52.736-117.76 117.76-117.76h400.164571c65.097143 0 117.76 52.662857 117.76 117.76z m-78.482285 604.233143v-604.16a39.204571 39.204571 0 0 0-39.277715-39.277715H274.6624a39.204571 39.204571 0 0 0-39.204571 39.204572v604.233143c0 21.723429 17.554286 39.277714 39.204571 39.277714h400.164571c21.723429 0 39.277714-17.554286 39.277715-39.277714z m-122.88-313.856H513.912686v23.552h77.165714a39.204571 39.204571 0 1 1 0 78.482285H513.985829v65.389715a39.204571 39.204571 0 1 1-78.482286 0V617.325714H358.410971a39.204571 39.204571 0 1 1 0-78.482285h77.165715v-23.552H358.410971a39.204571 39.204571 0 1 1 0-78.482286h14.774858L337.930971 401.554286a39.204571 39.204571 0 0 1 55.442286-55.442286L475.000686 427.885714 556.7744 345.965714a39.204571 39.204571 0 0 1 55.442286 55.442286l-35.328 35.328h14.262857a39.204571 39.204571 0 1 1 0 78.482286z" fill="#B0B0B0" p-id="1221"></path></svg>