<?xml version="1.0" standalone="no"?><!DOCTYPE svg PUBLIC "-//W3C//DTD SVG 1.1//EN" "http://www.w3.org/Graphics/SVG/1.1/DTD/svg11.dtd"><svg t="1591256591649" class="icon" viewBox="0 0 1024 1024" version="1.1" xmlns="http://www.w3.org/2000/svg" p-id="2778" xmlns:xlink="http://www.w3.org/1999/xlink" width="200" height="200"><defs><style type="text/css"></style></defs><path d="M974.933333 810.666667A224.170667 224.170667 0 0 1 751.616 1024H223.573333A224.085333 224.085333 0 0 1 0.256 810.666667H0V213.418667h0.256A224.170667 224.170667 0 0 1 223.573333 0h444.586667L571.989333 81.408H223.573333A143.104 143.104 0 0 0 81.408 224.256v575.573333c0 78.592 63.914667 142.592 142.165333 142.592h528.042667c78.421333 0 142.165333-64 142.165333-142.506666v-402.773334l81.237334-80.213333V810.666667h-0.085334z m-280.746666-357.802667l-58.965334 62.208c-19.626667 19.968-68.949333 70.058667-84.650666 86.698667l-38.912 41.216a337.408 337.408 0 0 1-35.242667 33.024c-6.4 5.12-12.970667 9.130667-19.968 12.288a319.402667 319.402667 0 0 1-30.122667 13.056c-13.312 5.12-27.136 10.069333-41.642666 15.018666-14.506667 4.864-28.16 8.96-41.216 12.629334a308.053333 308.053333 0 0 1-29.013334 6.912c-13.312 1.621333-22.016-0.512-26.538666-6.144-4.352-5.717333-5.632-15.274667-3.669334-28.416 1.024-7.168 3.413333-17.578667 7.082667-31.146667l11.690667-42.325333c4.266667-14.506667 8.192-28.074667 12.117333-40.362667 3.925333-12.288 7.082667-20.736 9.557333-25.344a121.514667 121.514667 0 0 1 25.856-39.253333l20.565334-21.845334c10.752-11.605333 56.064-57.6 72.277333-74.496l53.76-56.149333 59.648-62.208L709.12 149.077333l138.837333 140.8-153.770666 162.986667z m249.002666-262.4c-7.338667 7.594667-13.824 14.336-19.797333 19.968a1392.64 1392.64 0 0 0-15.104 15.274667c-4.864 5.12-9.386667 9.557333-13.653333 13.397333l-138.069334-140.8c7.338667-6.997333 16.042667-15.530667 26.112-25.344 9.984-9.898667 18.432-17.664 25.173334-23.466667a78.677333 78.677333 0 0 1 51.541333-18.602666h2.218667a82.858667 82.858667 0 0 1 13.312 1.450666h-0.426667 0.426667c18.602667 3.413333 38.058667 13.482667 54.613333 29.44 9.130667 8.874667 16.554667 18.944 21.930667 29.013334 8.106667 15.104 11.946667 30.976 11.093333 45.312v5.376a70.997333 70.997333 0 0 1-4.608 25.002666 76.458667 76.458667 0 0 1-14.762667 23.893334z" p-id="2779"></path></svg>