<?xml version="1.0" standalone="no"?><!DOCTYPE svg PUBLIC "-//W3C//DTD SVG 1.1//EN" "http://www.w3.org/Graphics/SVG/1.1/DTD/svg11.dtd"><svg t="1571110220934" class="icon" viewBox="0 0 1024 1024" version="1.1" xmlns="http://www.w3.org/2000/svg" p-id="9513" xmlns:xlink="http://www.w3.org/1999/xlink" width="48" height="48"><defs><style type="text/css"></style></defs><path d="M944.4 763.1c2.2-5.2 3.3-10.7 3.3-16.4 0-5.7-1.2-11.3-3.3-16.4-2.2-5.2-5.3-9.9-9.2-13.8L784.3 565.7c-16.7-16.7-43.6-16.7-60.3 0-16.7 16.6-16.7 43.6 0 60.3l78 78H545.6c-23.6 0-42.7 19.1-42.7 42.7s19.1 42.7 42.7 42.7H802l-78 78c-16.7 16.6-16.7 43.6 0 60.3 8.3 8.3 19.2 12.5 30.2 12.5 10.9 0 21.8-4.2 30.2-12.5l150.8-150.8c3.9-4 7-8.6 9.2-13.8" fill="#ffffff" p-id="9514"></path><path d="M417.6 937.1H247c-94.3 0-170.7-76.4-170.7-170.7v-512c0-94.3 76.4-170.7 170.7-170.7h512c94.3 0 170.7 76.4 170.7 170.7v170.7c0 23.6-19.1 42.7-42.7 42.7s-42.7-19.1-42.7-42.7V254.5c0-47.1-38.2-85.3-85.3-85.3H247c-47.1 0-85.3 38.2-85.3 85.3v512c0 47.1 38.2 85.3 85.3 85.3h170.7c23.6 0 42.7 19.1 42.7 42.7-0.1 23.5-19.2 42.6-42.8 42.6z" fill="#ffffff" p-id="9515"></path></svg>