<?xml version="1.0" standalone="no"?><!DOCTYPE svg PUBLIC "-//W3C//DTD SVG 1.1//EN" "http://www.w3.org/Graphics/SVG/1.1/DTD/svg11.dtd"><svg t="1583474897816" class="icon" viewBox="0 0 1024 1024" version="1.1" xmlns="http://www.w3.org/2000/svg" p-id="2309" xmlns:xlink="http://www.w3.org/1999/xlink" width="200" height="200"><defs><style type="text/css"></style></defs><path d="M244.288 164a19.2 19.2 0 0 1 19.2-19.2h488.8a19.2 19.2 0 0 1 0 38.4h-488.8a19.2 19.2 0 0 1-19.2-19.2z m-50.56 96.464a19.2 19.2 0 0 1 19.2-19.2h594.16a19.2 19.2 0 1 1 0 38.4H212.912a19.2 19.2 0 0 1-19.2-19.2zM96.8 435.184c0-49.248 40-89.072 89.248-89.072h647.904c49.248 0 89.248 39.824 89.248 89.056v350.976c0 49.232-40 89.056-89.248 89.056H186.048a89.152 89.152 0 0 1-89.248-89.056V435.168z m89.248-50.672a50.752 50.752 0 0 0-50.848 50.656v350.976a50.752 50.752 0 0 0 50.848 50.656h647.904a50.752 50.752 0 0 0 50.848-50.656V435.168a50.752 50.752 0 0 0-50.848-50.656H186.048z m196.4 75.888a19.2 19.2 0 0 1 26.304-6.784l104.656 61.776 101.872-61.664a19.2 19.2 0 0 1 19.888 32.848l-102.432 62.016v29.12h126.864a19.2 19.2 0 0 1 0 38.4h-126.864v51.536l126.992 0.928a19.2 19.2 0 1 1-0.272 38.4l-126.72-0.928v53.488a19.2 19.2 0 1 1-38.4 0V705.92H364.64a19.2 19.2 0 0 1 0-38.4h129.712v-51.392H364.64a19.2 19.2 0 0 1 0-38.4h129.712v-29.008l-105.12-62.032a19.2 19.2 0 0 1-6.768-26.288z" p-id="2310"></path></svg>