<?xml version="1.0" standalone="no"?><!DOCTYPE svg PUBLIC "-//W3C//DTD SVG 1.1//EN" "http://www.w3.org/Graphics/SVG/1.1/DTD/svg11.dtd"><svg t="1591247368783" class="icon" viewBox="0 0 1024 1024" version="1.1" xmlns="http://www.w3.org/2000/svg" p-id="2666" xmlns:xlink="http://www.w3.org/1999/xlink" width="200" height="200"><defs><style type="text/css"></style></defs><path d="M843.861333 51.2C943.36 51.2 1024 131.84 1024 231.338667v568.917333a180.138667 180.138667 0 0 1-180.138667 180.053333H180.053333A180.138667 180.138667 0 0 1 0 800.341333V231.253333C0 131.84 80.64 51.2 180.138667 51.2H843.946667z m0 75.861333H180.053333C122.538667 127.061333 75.946667 173.738667 75.946667 231.253333v568.917334c0 57.6 46.677333 104.277333 104.277333 104.277333H843.946667c57.6 0 104.277333-46.677333 104.277333-104.277333V695.978667h-341.333333a85.333333 85.333333 0 0 1-85.333334-85.333334V420.949333a85.333333 85.333333 0 0 1 85.333334-85.333333h341.333333V231.338667c0-57.6-46.677333-104.277333-104.277333-104.277334z m104.277334 284.416h-341.333334A9.472 9.472 0 0 0 597.333333 420.949333v189.696c0 5.12 4.266667 9.386667 9.472 9.386667h341.333334V411.562667z m-246.528 56.917334a47.445333 47.445333 0 1 1 0 94.805333 47.445333 47.445333 0 0 1 0-94.805333z" p-id="2667"></path></svg>