<?xml version="1.0" standalone="no"?><!DOCTYPE svg PUBLIC "-//W3C//DTD SVG 1.1//EN" "http://www.w3.org/Graphics/SVG/1.1/DTD/svg11.dtd"><svg t="1591089056138" class="icon" viewBox="0 0 1024 1024" version="1.1" xmlns="http://www.w3.org/2000/svg" p-id="10563" xmlns:xlink="http://www.w3.org/1999/xlink" width="200" height="200"><defs><style type="text/css"></style></defs><path d="M512 0a512 512 0 1 1 0 1024A512 512 0 0 1 512 0z m0 73.130667a438.869333 438.869333 0 1 0 0 877.738666A438.869333 438.869333 0 0 0 512 73.130667z m0 173.738666c20.224 0 36.608 16.384 36.608 36.522667l-0.085333 255.317333 134.485333 97.621334a36.608 36.608 0 1 1-43.008 59.221333L475.477333 576V283.392c0-20.138667 16.298667-36.522667 36.522667-36.522667z" p-id="10564"></path></svg>