<?xml version="1.0" standalone="no"?><!DOCTYPE svg PUBLIC "-//W3C//DTD SVG 1.1//EN" "http://www.w3.org/Graphics/SVG/1.1/DTD/svg11.dtd"><svg t="1591093017280" class="icon" viewBox="0 0 1117 1024" version="1.1" xmlns="http://www.w3.org/2000/svg" p-id="3946" xmlns:xlink="http://www.w3.org/1999/xlink" width="218.1640625" height="200"><defs><style type="text/css"></style></defs><path d="M373.946182 540.113455a36.305455 36.305455 0 0 1 36.305454 36.305454V914.152727a36.119273 36.119273 0 0 1-36.305454 36.119273H36.305455a36.305455 36.305455 0 0 1-36.305455-36.305455V576.418909a36.305455 36.305455 0 0 1 36.305455-36.305454h337.640727z m709.352727 306.26909a33.885091 33.885091 0 0 1 0 67.677091H547.933091a33.885091 33.885091 0 0 1 0-67.584h535.272727z m-745.658182-233.658181H72.610909v264.843636h265.029818V612.724364z m745.658182-36.305455a33.885091 33.885091 0 0 1 0 67.677091H547.933091a33.885091 33.885091 0 0 1 0-67.677091h535.272727zM373.946182 0a36.305455 36.305455 0 0 1 36.305454 36.305455v337.454545a36.305455 36.305455 0 0 1-36.305454 36.398545H36.305455a36.305455 36.305455 0 0 1-36.305455-36.305454V36.305455A36.305455 36.305455 0 0 1 36.305455 0h337.640727z m709.352727 306.269091a33.885091 33.885091 0 0 1 0 67.677091H547.933091a33.885091 33.885091 0 0 1 0-67.677091h535.272727zM337.640727 72.610909H72.610909v265.029818h265.029818V72.610909z m745.658182-36.305454a33.885091 33.885091 0 0 1 0 67.584H547.933091a33.885091 33.885091 0 0 1 0-67.584h535.272727z" p-id="3947"></path></svg>