<?xml version="1.0" standalone="no"?><!DOCTYPE svg PUBLIC "-//W3C//DTD SVG 1.1//EN" "http://www.w3.org/Graphics/SVG/1.1/DTD/svg11.dtd"><svg t="1591089039791" class="icon" viewBox="0 0 1024 1024" version="1.1" xmlns="http://www.w3.org/2000/svg" p-id="10301" xmlns:xlink="http://www.w3.org/1999/xlink" width="200" height="200"><defs><style type="text/css"></style></defs><path d="M787.759376 134.893611a458.628552 458.628552 0 0 1 135.302247 326.226857 458.11669 458.11669 0 0 1-103.6521 292.017399l191.436472 191.265851a46.494152 46.494152 0 1 1-65.859606 65.774296L753.549917 819.082784a458.11669 458.11669 0 0 1-291.761467 103.993341H461.532518a458.543242 458.543242 0 0 1-326.141546-134.961006A458.713863 458.713863 0 0 1 0.003413 461.632331a458.372621 458.372621 0 0 1 134.961007-326.482789 462.126278 462.126278 0 0 1 652.794956-0.341241zM461.532518 93.09153h-0.17062a365.98149 365.98149 0 0 0-260.452562 108.002929A365.98149 365.98149 0 0 0 93.162338 461.632331a365.98149 365.98149 0 0 0 108.08824 260.452561A365.89618 365.89618 0 0 0 461.532518 829.917201h0.170621A365.98149 365.98149 0 0 0 722.155701 721.828961a365.98149 365.98149 0 0 0 107.746998-260.623182 365.98149 365.98149 0 0 0-108.002929-260.452562A366.0668 366.0668 0 0 0 461.532518 93.09153z" p-id="10302"></path></svg>