<?xml version="1.0" standalone="no"?><!DOCTYPE svg PUBLIC "-//W3C//DTD SVG 1.1//EN" "http://www.w3.org/Graphics/SVG/1.1/DTD/svg11.dtd"><svg t="1591089087214" class="icon" viewBox="0 0 1024 1024" version="1.1" xmlns="http://www.w3.org/2000/svg" p-id="11083" xmlns:xlink="http://www.w3.org/1999/xlink" width="200" height="200"><defs><style type="text/css"></style></defs><path d="M651.605333 930.730667V698.026667a46.506667 46.506667 0 1 1 93.013334 0v232.704h93.184V512H558.506667v418.816h93.098666z m-372.309333 0V698.026667a46.506667 46.506667 0 1 1 93.013333 0v232.704h93.184V512H186.197333v418.816h93.098667zM930.816 512v418.816h46.592v93.013333H46.592v-93.013333h46.592V512H46.592a46.506667 46.506667 0 0 1-31.061333-81.066667L480.853333 11.946667a46.506667 46.506667 0 0 1 62.293334 0l465.322666 418.816a46.506667 46.506667 0 0 1-31.061333 81.066666h-46.592z m-762.88-93.013333h688.128L512 109.056l-344.064 309.76z" p-id="11084"></path></svg>