<?xml version="1.0" standalone="no"?><!DOCTYPE svg PUBLIC "-//W3C//DTD SVG 1.1//EN" "http://www.w3.org/Graphics/SVG/1.1/DTD/svg11.dtd"><svg t="1591089072232" class="icon" viewBox="0 0 1137 1024" version="1.1" xmlns="http://www.w3.org/2000/svg" p-id="10825" xmlns:xlink="http://www.w3.org/1999/xlink" width="222.0703125" height="200"><defs><style type="text/css"></style></defs><path d="M963.738002 0.006827c18.204323 0 34.588214 9.55727 42.325051 24.689613a40.390842 40.390842 0 0 1-6.143959 45.738362L687.942507 420.412913l-1.706655 505.169965a42.666382 42.666382 0 0 1-22.755404 35.725984 50.061888 50.061888 0 0 1-44.828145 1.592879l-255.543186-110.022378a42.893936 42.893936 0 0 1-25.94116-38.684187v-393.668486l-325.857383-349.295449a40.390842 40.390842 0 0 1-6.940398-46.079693A47.103686 47.103686 0 0 1 46.695227 0.006827zM1137.816842 816.698271v76.230603H789.659163v-76.230603H1137.816842zM593.393804 447.60562h-162.701137v339.851957l161.563367 68.266212 1.13777-408.118169zM1137.816842 664.464619v76.116826H789.659163V664.464619H1137.816842z m0-165.65934v76.230603H789.659163v-76.230603H1137.816842z m-273.064847-412.669249H148.753213l256.567179 275.112833h214.12835L864.751995 86.249807z" p-id="10826"></path></svg>