<?xml version="1.0" standalone="no"?><!DOCTYPE svg PUBLIC "-//W3C//DTD SVG 1.1//EN" "http://www.w3.org/Graphics/SVG/1.1/DTD/svg11.dtd"><svg t="1591089047908" class="icon" viewBox="0 0 1024 1024" version="1.1" xmlns="http://www.w3.org/2000/svg" p-id="10430" xmlns:xlink="http://www.w3.org/1999/xlink" width="200" height="200"><defs><style type="text/css"></style></defs><path d="M683.861333 0c49.664 0 90.368 40.704 90.368 90.368v7.082667l9.472 0.085333c64.256 0 116.48 52.224 116.48 116.48v693.504c0 64.256-52.224 116.48-116.736 116.48H201.813333A116.565333 116.565333 0 0 1 85.333333 907.52V214.016c0-64.256 52.224-116.48 116.48-116.48l9.216-0.085333v-7.082667C211.029333 40.704 251.733333 0 301.653333 0h382.208z m-471.893333 174.421333l-10.154667-0.085333a39.509333 39.509333 0 0 0-39.68 39.68v693.504c0 21.76 17.92 39.68 39.68 39.68h581.888a39.509333 39.509333 0 0 0 39.68-39.68V214.016a39.850667 39.850667 0 0 0-39.68-39.68h-10.325333a90.88 90.88 0 0 1-89.770667 78.08H301.653333c-45.653333 0-83.626667-34.048-89.770666-77.994667zM658.773333 701.696a38.4 38.4 0 1 1 0 76.8H326.485333a38.4 38.4 0 1 1 0-76.8H658.773333z m0-159.488a38.4 38.4 0 1 1 0 76.8H326.485333a38.4 38.4 0 1 1 0-76.8H658.773333z m0-159.232a38.4 38.4 0 1 1 0 76.8H326.485333a38.4 38.4 0 1 1 0-76.8H658.773333zM683.861333 76.8H301.653333a13.653333 13.653333 0 0 0-13.568 13.568v71.424a13.653333 13.653333 0 0 0 13.568 13.568h382.208a13.653333 13.653333 0 0 0 13.568-13.568v-71.424A13.653333 13.653333 0 0 0 683.861333 76.8z" p-id="10431"></path></svg>