<?xml version="1.0" standalone="no"?><!DOCTYPE svg PUBLIC "-//W3C//DTD SVG 1.1//EN" "http://www.w3.org/Graphics/SVG/1.1/DTD/svg11.dtd"><svg t="1591089027724" class="icon" viewBox="0 0 1024 1024" version="1.1" xmlns="http://www.w3.org/2000/svg" p-id="10168" xmlns:xlink="http://www.w3.org/1999/xlink" width="200" height="200"><defs><style type="text/css"></style></defs><path d="M648.362667 606.72c-3.157333-1.877333-6.826667-13.482667-0.256-37.546667 70.826667-76.970667 114.432-187.136 114.432-290.133333C762.538667 115.285333 649.130667 0 493.397333 0 337.92 0 229.290667 114.346667 229.290667 278.186667c0 104.362667 44.117333 215.381333 115.626666 291.84 7.168 24.064-2.218667 32.682667-8.106666 35.413333C265.984 631.04 0 724.736 0 854.357333V1024h995.413333V832.426667c-34.474667-118.784-286.037333-205.653333-347.050666-225.706667z m-576.853334 345.856v-93.013333c0-48.981333 147.968-130.218667 291.498667-182.101334 5.888-2.133333 36.266667-14.762667 52.138667-49.664 8.533333-18.517333 15.189333-49.493333-0.938667-91.818666l-2.816-7.424-5.632-5.632c-60.586667-61.952-99.84-158.037333-99.84-244.821334C305.92 129.450667 407.04 76.629333 493.397333 76.629333c86.613333 0 193.28 54.016 193.28 202.666667 0 85.930667-39.253333 181.76-99.84 244.224 0 0-25.685333 36.266667-25.344 62.293333 0.256 17.152 9.898667 38.741333 17.408 53.589334 14.250667 28.16 37.546667 37.461333 44.202667 39.68 133.034667 43.946667 285.866667 102.656 300.885333 154.453333v119.04H71.509333z" p-id="10169"></path></svg>