<?xml version="1.0" standalone="no"?><!DOCTYPE svg PUBLIC "-//W3C//DTD SVG 1.1//EN" "http://www.w3.org/Graphics/SVG/1.1/DTD/svg11.dtd"><svg t="1591089002160" class="icon" viewBox="0 0 1024 1024" version="1.1" xmlns="http://www.w3.org/2000/svg" p-id="10035" xmlns:xlink="http://www.w3.org/1999/xlink" width="200" height="200"><defs><style type="text/css"></style></defs><path d="M243.516963 88.902516V50.338277c0-27.814031 22.780203-50.338277 51.106149-50.338277 28.155307 0 51.106149 22.524246 51.106149 50.338277v38.564239h320.117314V50.338277c0-27.814031 22.950842-50.338277 51.191468-50.338277 28.155307 0 51.02083 22.524246 51.02083 50.338277v38.564239h66.548908c103.833361 0 188.213964 83.271455 188.213965 185.569072v114.49825a49.911681 49.911681 0 0 1 0 19.879354v429.325779c0 102.553574-84.551241 185.825029-188.299284 185.825029l-664.03866-0.853191C75.097033 1014.444259 0.016213 934.841526 0.016213 838.430928V274.386269c0-102.212298 84.465922-185.483753 188.384603-185.483753h55.116147z m0 75.763373h-55.116147A110.65889 110.65889 0 0 0 76.803415 274.471588v74.056991h869.231129v-74.056991a110.914848 110.914848 0 0 0-111.512082-109.976337H767.888235v58.187635a50.850192 50.850192 0 0 1-51.106149 50.508915 50.764873 50.764873 0 0 1-51.106149-50.338277v-58.358273H345.729261v58.187635a50.935511 50.935511 0 0 1-51.191468 50.508915 50.764873 50.764873 0 0 1-51.02083-50.338277v-58.358273 0.170638z m702.6029 284.624563H76.974054v389.140476a110.914848 110.914848 0 0 0 111.512081 109.891018h646.036327a110.914848 110.914848 0 0 0 111.512082-109.891018v-389.055157h0.085319zM536.161522 821.196467H487.188351a50.764873 50.764873 0 0 1-51.106149-50.423596c0-27.814031 22.865522-50.338277 51.191468-50.338277h48.802533c28.155307 0 51.106149 22.524246 51.106149 50.338277a50.679553 50.679553 0 0 1-51.191468 50.423596zM308.018213 662.844193h-48.887852a50.764873 50.764873 0 0 1-51.106149-50.423596c0-27.814031 22.865522-50.338277 51.191468-50.338277h48.802533c28.155307 0 51.106149 22.524246 51.106149 50.338277a50.764873 50.764873 0 0 1-51.191468 50.338277z m228.143309 0H487.188351a50.764873 50.764873 0 0 1-51.106149-50.423596c0-27.814031 22.865522-50.338277 51.191468-50.338277h48.802533c28.155307 0 51.106149 22.524246 51.106149 50.338277a50.764873 50.764873 0 0 1-51.191468 50.338277z m227.546076 0h-48.802533a50.764873 50.764873 0 0 1-51.191468-50.423596c0-27.814031 23.036161-50.338277 51.191468-50.338277h48.802533c28.325946 0 51.191468 22.524246 51.191468 50.338277a50.764873 50.764873 0 0 1-51.191468 50.338277zM308.018213 821.111148h-48.887852a50.764873 50.764873 0 0 1-51.106149-50.338277c0-27.814031 22.865522-50.338277 51.191468-50.338277h48.802533c28.155307 0 51.106149 22.524246 51.106149 50.338277a50.679553 50.679553 0 0 1-51.191468 50.423596v-0.085319z m455.689385 0h-48.802533a50.764873 50.764873 0 0 1-51.191468-50.338277c0-27.814031 23.036161-50.338277 51.191468-50.338277h48.802533c28.325946 0 51.191468 22.524246 51.191468 50.338277a50.764873 50.764873 0 0 1-51.191468 50.423596v-0.085319z" p-id="10036"></path></svg>