<?xml version="1.0" standalone="no"?><!DOCTYPE svg PUBLIC "-//W3C//DTD SVG 1.1//EN" "http://www.w3.org/Graphics/SVG/1.1/DTD/svg11.dtd"><svg t="1591091211722" class="icon" viewBox="0 0 1024 1024" version="1.1" xmlns="http://www.w3.org/2000/svg" p-id="12363" xmlns:xlink="http://www.w3.org/1999/xlink" width="200" height="200"><defs><style type="text/css"></style></defs><path d="M977.664 610.816H850.602667a52.906667 52.906667 0 0 0 0-8.96 178.944 178.944 0 0 0-116.138667-134.741333 37.034667 37.034667 0 0 0-10.837333-1.536H548.352v-52.906667h127.317333a39.68 39.68 0 0 0 39.765334-39.765333V39.68A39.936 39.936 0 0 0 675.669333 0H342.442667a39.68 39.68 0 0 0-39.68 39.68v332.970667c0 21.930667 17.749333 39.68 39.68 39.68h127.146666v52.906666H287.061333c-92.16 5.888-117.248 124.16-119.637333 137.642667a37.888 37.888 0 0 0 0 7.68H39.68A39.68 39.68 0 0 0 0 650.325333v333.482667c0 21.930667 17.749333 39.68 39.68 39.68h333.482667a39.68 39.68 0 0 0 39.68-39.68V650.837333a39.68 39.68 0 0 0-39.68-39.68H247.210667c6.314667-26.453333 23.552-64.597333 42.325333-65.962666H715.946667c26.282667 13.397333 45.568 37.376 52.906666 65.962666H644.266667a39.68 39.68 0 0 0-39.765334 39.68v333.482667a39.68 39.68 0 0 0 39.68 39.68h333.482667a39.68 39.68 0 0 0 39.68-39.68V650.837333a39.68 39.68 0 0 0-39.68-40.021333z m-644.181333 79.36v254.122667H79.36V690.346667h254.122667z m48.128-356.693333V79.36h254.378666v254.378667l-254.293333-0.256z m555.861333 610.816H683.861333V690.346667h254.378667l-0.853333 254.037333z" p-id="12364"></path></svg>