<?xml version="1.0" standalone="no"?><!DOCTYPE svg PUBLIC "-//W3C//DTD SVG 1.1//EN" "http://www.w3.org/Graphics/SVG/1.1/DTD/svg11.dtd"><svg t="1591249316033" class="icon" viewBox="0 0 1024 1024" version="1.1" xmlns="http://www.w3.org/2000/svg" p-id="4004" xmlns:xlink="http://www.w3.org/1999/xlink" width="200" height="200"><defs><style type="text/css"></style></defs><path d="M834.389333 42.666667C938.666667 42.666667 1024 128 1024 232.277333v530.944c0 104.362667-85.333333 189.696-189.610667 189.696H189.610667C85.333333 952.917333 0 867.584 0 763.221333V232.277333C0 128 85.333333 42.666667 189.610667 42.666667z m113.749334 341.333333H75.946667v379.221333c0 62.634667 51.2 113.834667 113.749333 113.834667h644.778667c62.549333 0 113.749333-51.2 113.749333-113.834667V384zM227.584 611.584c20.821333 0 37.888 17.066667 37.888 37.888V725.333333c0 20.821333-17.066667 37.888-37.888 37.888a38.058667 38.058667 0 0 1-37.973333-37.888v-75.861333c0-20.821333 17.066667-37.888 37.973333-37.888z m151.637333 0c20.906667 0 37.973333 17.066667 37.973334 37.888V725.333333A38.058667 38.058667 0 0 1 341.333333 725.333333v-75.861333c0-20.821333 17.066667-37.888 37.888-37.888z m151.722667 0c20.906667 0 37.973333 17.066667 37.973333 37.888V725.333333a38.058667 38.058667 0 0 1-75.861333 0v-75.861333c0-20.821333 17.066667-37.888 37.888-37.888z m303.445333-493.056H189.610667c-62.549333 0-113.749333 51.2-113.749334 113.749333v75.946667H948.053333v-75.946667c0-62.549333-51.2-113.749333-113.749333-113.749333z" p-id="4005"></path></svg>