<?xml version="1.0" encoding="UTF-8"?>
<svg width="12px" height="12px" viewBox="0 0 12 12" version="1.1" xmlns="http://www.w3.org/2000/svg" xmlns:xlink="http://www.w3.org/1999/xlink">
    <!-- Generator: Sketch 59 (86127) - https://sketch.com -->
    <title>icon/API管理备份</title>
    <desc>Created with Sketch.</desc>
    <g id="UI规范说明+UE交互说明+切图" stroke="none" stroke-width="1" fill="none" fill-rule="evenodd">
        <g id="切图" transform="translate(-925.000000, -85.000000)" fill="#3369F3">
            <g id="icon/查看密钥" transform="translate(923.000000, 83.000000)">
                <path d="M9.91666359,2.00000232 C10.9114472,1.99889404 11.8656859,2.39414438 12.5683292,3.09833757 C13.8333701,4.36336296 14.0286401,6.34584139 13.03472,7.8333697 C12.1133143,9.21237097 10.4078115,9.80995921 8.84701954,9.3443765 L7.97999767,10.2116681 L7.42333123,10.3850014 L7.28166462,11.6966676 L6.09833173,11.9316675 L6.05333175,12.9883337 L4.97833218,13.2133336 L4.19166582,14 L2.1566666,13.8433334 L2,11.8083342 L6.50391059,7.30421883 C6.1868433,6.60840369 6.08066683,5.81319942 6.23874682,5.0184443 C6.58775459,3.26379013 8.12763657,2.00000232 9.91666359,2.00000232 Z M6.90538605,7.98506594 L2.79166635,12.1016674 L2.86999966,13.1300003 L3.8983326,13.2083336 L4.59833232,12.5100006 L5.31333204,12.3600006 L5.35833203,11.2966677 L6.57999822,11.0550011 L6.71499816,9.80333497 L7.5716645,9.5366684 L8.08591323,9.02295512 C7.61464413,8.75974383 7.21554787,8.40332804 6.90538605,7.98506594 Z M9.91666359,2.84165813 C9.14485382,2.8393686 8.40422725,3.14606242 7.85999772,3.69333733 C6.87882171,4.67435644 6.72726067,6.21185589 7.49800227,7.36557259 C8.26874388,8.51928929 9.7471289,8.96790164 11.0290459,8.43705919 C12.3109629,7.90621675 13.0393851,6.54376445 12.7688436,5.18291467 C12.498302,3.8220649 11.3041451,2.84182791 9.91666359,2.84165813 Z M10.58333,4.0000021 C10.8708128,3.99948368 11.1466766,4.11342746 11.3499964,4.31667042 C11.7157281,4.6817974 11.7726297,5.25441903 11.4859061,5.68438068 C11.1991826,6.11434232 10.648679,6.28191074 10.1710251,6.08461888 C9.69337109,5.88732702 9.42158099,5.38011557 9.52185275,4.87314124 C9.62212451,4.3661669 10.066535,4.00060897 10.58333,4.0000021 Z M10.58333,4.46499689 C10.3325494,4.4641041 10.1060619,4.61476589 10.0099705,4.84640822 C9.91387912,5.07805054 9.967217,5.34479132 10.1449968,5.52166995 C10.3878573,5.76187457 10.7788027,5.76187457 11.0216632,5.52166995 C11.2618678,5.27880949 11.2618678,4.88786409 11.0216632,4.64500363 C10.9053553,4.52902128 10.7475823,4.4642324 10.58333,4.46499689 Z" id="形状结合"></path>
            </g>
        </g>
    </g>
</svg>