<?xml version="1.0" standalone="no"?><!DOCTYPE svg PUBLIC "-//W3C//DTD SVG 1.1//EN" "http://www.w3.org/Graphics/SVG/1.1/DTD/svg11.dtd"><svg t="1591089064911" class="icon" viewBox="0 0 1024 1024" version="1.1" xmlns="http://www.w3.org/2000/svg" p-id="10696" xmlns:xlink="http://www.w3.org/1999/xlink" width="200" height="200"><defs><style type="text/css"></style></defs><path d="M997.034667 490.410667c16.213333 0 26.965333 10.837333 26.965333 26.965333v458.154667c0 16.213333-10.752 26.88-26.965333 26.88H26.965333c-16.213333 0-26.965333-10.752-26.965333-26.88V517.376c0-16.213333 10.752-26.965333 26.965333-26.965333h188.586667c16.213333 0 26.965333 10.837333 26.965333 26.965333v53.930667a26.965333 26.965333 0 0 1-26.965333 26.965333L107.776 598.186667v269.482666c0 13.909333 7.936 23.808 20.394667 26.368l6.570666 0.597334h754.517334c16.213333 0 26.965333-10.752 26.965333-26.965334l-0.085333-269.482666H808.448c-16.213333 0-26.965333-10.752-26.965333-26.88v-53.930667c0-16.213333 10.752-26.965333 26.965333-26.965333zM530.858667 8.106667L797.610667 274.773333a26.026667 26.026667 0 0 1 0 37.717334l-37.717334 37.717333a26.026667 26.026667 0 0 1-37.717333 0L565.845333 193.962667v458.24c0 16.128-10.752 26.88-26.88 26.88h-53.930666c-16.213333 0-26.965333-10.752-26.965334-26.965334V193.962667L301.824 350.293333a26.026667 26.026667 0 0 1-37.717333 0l-37.717334-37.717333a26.026667 26.026667 0 0 1 0-37.717333L493.141333 8.106667a26.88 26.88 0 0 1 15.957334-7.936h5.802666a26.88 26.88 0 0 1 15.957334 7.936z" p-id="10697"></path></svg>