<?xml version="1.0" encoding="UTF-8"?>
<svg width="56px" height="40px" viewBox="0 0 56 40" version="1.1" xmlns="http://www.w3.org/2000/svg" xmlns:xlink="http://www.w3.org/1999/xlink">
    <!-- Generator: Sketch 58 (84663) - https://sketch.com -->
    <title>img_logo</title>
    <desc>Created with Sketch.</desc>
    <defs>
        <linearGradient x1="75.2044332%" y1="72.4364378%" x2="44.842095%" y2="25.679305%" id="linearGradient-1">
            <stop stop-color="#59C0F9" offset="0%"></stop>
            <stop stop-color="#2D8CF0" offset="100%"></stop>
        </linearGradient>
        <polygon id="path-2" points="0.204837838 0 49.9375676 0 49.9375676 26 0.204837838 26"></polygon>
    </defs>
    <g id="home" stroke="none" stroke-width="1" fill="none" fill-rule="evenodd" opacity="0.796875">
        <g id="sign-in验证" transform="translate(-100.000000, -85.000000)">
            <g id="img_logo" transform="translate(100.000000, 85.000000)">
                <path d="M24.1759338,20.4248595 L27.5752915,23.8240737 C27.8095319,24.0586421 28.1901301,24.0586421 28.4247085,23.8240737 L31.8240662,20.4248595 C32.0586446,20.1902911 32.0586446,19.8097089 31.8240662,19.5751405 L28.4247085,16.1759263 C28.1901301,15.9413579 27.8095319,15.9413579 27.5752915,16.1759263 L24.1759338,19.5751405 C23.9413554,19.8097089 23.9413554,20.1902911 24.1759338,20.4248595" id="Fill-1" fill="#2D8CF0"></path>
                <path d="M39.5187373,20.5 C39.5187373,26.20336 34.7156072,30.83188 28.7652093,30.89688 L28.7646653,30.9 L1.47775114,30.9 C1.21391761,30.9 0.994690995,31.08122 0.957971897,31.32978 L0.00545127928,39.38978 C-0.0418755589,39.70802 0.225221884,40 0.563309585,40 L42.6181012,40 C44.5707413,40 46.3778649,38.4868 46.6539381,36.62 L50,14 L37.129276,14 C38.6230633,15.78074 39.5187373,18.03988 39.5187373,20.5" id="Fill-3" fill="#2D8CF0"></path>
                <g id="编组" transform="translate(6.000000, 0.000000)">
                    <mask id="mask-3" fill="white">
                        <use xlink:href="#path-2"></use>
                    </mask>
                    <g id="Clip-6"></g>
                    <path d="M49.7024054,0 L7.54024324,0 C5.5997027,0 3.8042973,1.5132 3.52997297,3.38 L0.204837838,26 L12.9942973,26 C11.509973,24.21926 10.619973,21.96012 10.619973,19.5 C10.619973,13.97292 15.1024054,9.4549 20.7607838,9.12184 L20.7653784,9.1 L48.8734865,9.1 L49.9351081,0.2561 C49.9556486,0.11518 49.8510541,0 49.7024054,0" id="Fill-5" fill="#2D8CF0" mask="url(#mask-3)"></path>
                </g>
            </g>
        </g>
    </g>
</svg>