<?xml version="1.0" standalone="no"?><!DOCTYPE svg PUBLIC "-//W3C//DTD SVG 1.1//EN" "http://www.w3.org/Graphics/SVG/1.1/DTD/svg11.dtd"><svg t="1591065101021" class="icon" viewBox="0 0 1024 1024" version="1.1" xmlns="http://www.w3.org/2000/svg" p-id="5518" xmlns:xlink="http://www.w3.org/1999/xlink" width="200" height="200"><defs><style type="text/css"></style></defs><path d="M778.9568 44.544A223.232 223.232 0 0 1 1001.472 267.1616v534.2208A223.232 223.232 0 0 1 778.8544 1024H244.6336A223.232 223.232 0 0 1 22.016 801.3824V267.1616A223.232 223.232 0 0 1 244.6336 44.544c0 48.9472 40.0384 89.088 89.088 89.088h356.1472c49.0496 0 89.088-40.1408 89.088-89.088zM433.9712 767.8976h-178.176a44.6464 44.6464 0 0 0-44.4416 44.544c0 24.576 19.968 44.544 44.544 44.544h177.9712c24.576 0 44.544-20.0704 44.6464-44.544a44.6464 44.6464 0 0 0-44.544-44.544z m344.8832-222.5152H244.6336a44.6464 44.6464 0 0 0-44.544 44.544c0 24.576 20.0704 44.544 44.544 44.544h534.3232a44.4416 44.4416 0 0 0-0.1024-89.088z m3.7888-222.6176H248.4224a44.6464 44.6464 0 0 0-44.544 44.544c0 24.576 20.0704 44.544 44.544 44.544h534.2208c24.576 0 44.544-20.0704 44.544-44.544a44.6464 44.6464 0 0 0-44.544-44.544zM686.2848 0c24.4736 0 44.544 20.0704 44.544 44.544S710.656 89.088 686.2848 89.088H330.0352a44.6464 44.6464 0 0 1-44.544-44.544c0-24.576 20.0704-44.544 44.544-44.544z" p-id="5519"></path></svg>