<?xml version="1.0" standalone="no"?><!DOCTYPE svg PUBLIC "-//W3C//DTD SVG 1.1//EN" "http://www.w3.org/Graphics/SVG/1.1/DTD/svg11.dtd"><svg t="1591251936044" class="icon" viewBox="0 0 1024 1024" version="1.1" xmlns="http://www.w3.org/2000/svg" p-id="5352" xmlns:xlink="http://www.w3.org/1999/xlink" width="200" height="200"><defs><style type="text/css"></style></defs><path d="M956.295863 0H724.719337a39.676892 39.676892 0 0 0 0 79.183131h192.070288V271.338745a39.676892 39.676892 0 0 0 79.18313 0V39.591565A39.762219 39.762219 0 0 0 956.295863 0zM39.631669 310.93031a39.676892 39.676892 0 0 0 39.591565-39.591565V79.183131H271.378849a39.676892 39.676892 0 0 0 0-79.183131H39.631669A39.676892 39.676892 0 0 0 0.040104 39.591565V271.338745c0 21.843622 17.662616 39.591565 39.591565 39.591565z m231.576526 633.806352H79.223234V752.581048a39.676892 39.676892 0 0 0-79.18313 0v231.74718c0 21.843622 17.747943 39.591565 39.591565 39.591565H271.378849a39.676892 39.676892 0 1 0-0.170654-79.183131z m685.172995-231.74718a39.676892 39.676892 0 0 0-39.676892 39.591566v192.155614h-191.984961a39.676892 39.676892 0 0 0 0 79.183131h231.661853a39.676892 39.676892 0 0 0 39.591565-39.591565V752.581048a39.762219 39.762219 0 0 0-39.676892-39.591566zM788.799651 831.934832a39.506239 39.506239 0 0 0 27.304528-68.26132l-99.83218-95.309867a290.707895 290.707895 0 1 0-528.17196-185.158829 290.793221 290.793221 0 0 0 474.330844 243.18095l98.978913 94.541928c7.679398 7.338092 17.491963 11.007138 27.304528 11.007138zM689.394104 514.690349a210.842151 210.842151 0 0 1-66.554786 141.215605 210.415517 210.415517 0 0 1-157.854302 56.656895 210.159538 210.159538 0 0 1-145.567264-71.247752 210.671497 210.671497 0 0 1-52.475889-153.246662c3.413066-54.097096 27.048548-104.183839 66.554786-141.215605a210.415517 210.415517 0 0 1 157.854302-56.656895 210.159538 210.159538 0 0 1 145.481937 71.247752 209.050291 209.050291 0 0 1 52.561216 153.246662z" p-id="5353"></path></svg>