<?xml version="1.0" standalone="no"?><!DOCTYPE svg PUBLIC "-//W3C//DTD SVG 1.1//EN" "http://www.w3.org/Graphics/SVG/1.1/DTD/svg11.dtd"><svg t="1591323435807" class="icon" viewBox="0 0 1024 1024" version="1.1" xmlns="http://www.w3.org/2000/svg" p-id="2806" xmlns:xlink="http://www.w3.org/1999/xlink" width="200" height="200"><defs><style type="text/css"></style></defs><path d="M1024 0v314.794667h-165.632V1024H165.546667V314.794667H0V0h1024zM792.064 198.826667H231.936v759.04h560.128V198.826667zM622.592 618.410667a99.498667 99.498667 0 0 1 0 198.826666 99.498667 99.498667 0 0 1 0-198.826666z m35.84-204.373334l46.933333 46.933334-339.712 339.626666-46.933333-46.848 339.797333-339.626666z m-35.84 270.677334a33.28 33.28 0 0 0-33.109333 33.109333 33.28 33.28 0 0 0 33.109333 33.194667 33.28 33.28 0 0 0 33.109333-33.194667 33.28 33.28 0 0 0-33.109333-33.109333z m-221.013333-287.317334a99.498667 99.498667 0 0 1 0 198.826667 99.498667 99.498667 0 0 1 0-198.826667z m0 66.304a33.28 33.28 0 0 0-33.109334 33.109334 33.28 33.28 0 0 0 33.109334 33.194666 33.28 33.28 0 0 0 33.109333-33.194666 33.28 33.28 0 0 0-33.109333-33.109334zM957.696 66.304H66.304v182.186667H165.546667V198.826667h-33.109334v-66.304h759.125334v66.304h-33.109334v49.664h99.157334V66.304z" p-id="2807"></path></svg>