<?xml version="1.0" standalone="no"?><!DOCTYPE svg PUBLIC "-//W3C//DTD SVG 1.1//EN" "http://www.w3.org/Graphics/SVG/1.1/DTD/svg11.dtd"><svg t="1591065075502" class="icon" viewBox="0 0 1024 1024" version="1.1" xmlns="http://www.w3.org/2000/svg" p-id="5389" xmlns:xlink="http://www.w3.org/1999/xlink" width="200" height="200"><defs><style type="text/css"></style></defs><path d="M977.602232 0.007168H597.601532a45.772113 45.772113 0 0 0-46.488903 46.386504v382.970256c0 26.111608 20.377294 46.386504 46.488903 46.386504h379.898302A45.772113 45.772113 0 0 0 1023.988736 429.363928V46.393672A45.772113 45.772113 0 0 0 977.602232 0.007168z m-95.742564 269.819953h-191.485128c-20.274896 0-37.682635-14.540582-37.682634-31.948321s17.407739-31.948321 37.682634-31.948321h191.485128c20.274896 0 37.682635 14.540582 37.682635 31.948321s-17.407739 31.948321-37.682635 31.948321zM426.3913 0.007168H46.492999A45.772113 45.772113 0 0 0 0.004096 46.393672v382.970256c0 26.111608 20.274896 46.386504 46.386504 46.386504h380.0007a45.772113 45.772113 0 0 0 46.488903-46.386504V46.393672A45.772113 45.772113 0 0 0 426.3913 0.007168zM330.751135 269.827121h-63.794243v63.794243c0 20.274896-14.438183 37.682635-31.845923 37.682634s-31.948321-17.407739-31.94832-37.682634v-63.794243H139.266007c-20.377294 0-37.682635-14.540582-37.682635-31.948321s17.407739-31.948321 37.682635-31.948321h63.794243v-63.794243c0-20.274896 14.540582-37.682635 31.948321-37.682635s31.845922 17.407739 31.845922 37.682635v63.794243h63.794243c20.377294 0 37.785033 14.540582 37.785034 31.948321s-17.407739 31.948321-37.785034 31.948321z m95.742564 278.523822H46.492999A45.772113 45.772113 0 0 0 0.004096 594.53265v382.970255c0 26.111608 20.274896 46.386504 46.386504 46.386505h380.0007a45.772113 45.772113 0 0 0 46.488903-46.386505v-382.970255a45.772113 45.772113 0 0 0-46.488903-46.386504z m-191.485128 104.344035c20.377294 0 37.785033 17.407739 37.785033 37.682634 0 20.377294-17.407739 37.682635-37.682635 37.682635a38.399424 38.399424 0 0 1-37.785033-37.682635c2.969555-20.274896 17.407739-37.682635 37.785033-37.682634z m0 266.850397a38.399424 38.399424 0 0 1-37.682635-37.682635c0-20.274896 17.407739-37.682635 37.785033-37.682635 20.274896 0 37.682635 17.407739 37.682635 37.682635 0 23.244451-17.407739 37.682635-37.682635 37.682635z m95.742564-101.476878H139.266007c-20.274896 0-37.580236-14.540582-37.580236-31.948321s17.407739-31.948321 37.682635-31.948321h191.485127c20.274896 0 37.682635 14.540582 37.682635 31.948321s-17.407739 31.948321-37.785033 31.948321z m646.953495-269.819953H597.601532a45.772113 45.772113 0 0 0-46.488903 46.386504v382.970256c0 26.111608 20.377294 46.386504 46.488903 46.386504h379.898302A45.772113 45.772113 0 0 0 1023.988736 977.605304v-382.970256a45.772113 45.772113 0 0 0-46.386504-46.386504z m-95.742563 330.747039h-191.485128c-20.274896 0-37.682635-14.540582-37.682635-31.948321s17.407739-31.948321 37.682635-31.94832h191.485128c20.274896 0 37.682635 14.540582 37.682634 31.94832s-17.407739 31.948321-37.682634 31.948321z m0-121.854172h-191.485128c-20.274896 0-37.682635-14.540582-37.682635-31.948321s17.407739-31.845922 37.682635-31.845922h191.485128c20.274896 0 37.682635 14.438183 37.682634 31.845922s-17.407739 31.948321-37.682634 31.948321z" p-id="5390"></path></svg>