<?xml version="1.0" standalone="no"?><!DOCTYPE svg PUBLIC "-//W3C//DTD SVG 1.1//EN" "http://www.w3.org/Graphics/SVG/1.1/DTD/svg11.dtd"><svg t="1591064775493" class="icon" viewBox="0 0 1228 1024" version="1.1" xmlns="http://www.w3.org/2000/svg" p-id="5131" xmlns:xlink="http://www.w3.org/1999/xlink" width="239.84375" height="200"><defs><style type="text/css"></style></defs><path d="M972.8 0h-716.8A256.7168 256.7168 0 0 0 0 256v512C0 908.5952 115.2 1024 256 1024h716.8c140.8 0 256-115.3024 256-256v-512C1228.8 115.2 1113.6 0 972.8 0zM486.4 233.5744h51.2c28.16 0 51.2 23.04 51.2 51.2s-23.04 51.2-51.2 51.2h-51.2a51.4048 51.4048 0 0 1-51.2-51.2c0-28.16 23.04-51.2 51.2-51.2z m-230.4 0H307.2c28.16 0 51.2 23.04 51.2 51.2s-23.04 51.2-51.2 51.2h-51.2a51.4048 51.4048 0 0 1-51.2-51.2 51.5072 51.5072 0 0 1 51.2-51.2zM972.8 819.2h-716.8a51.4048 51.4048 0 0 1-51.2-51.2c0-28.2624 23.04-51.2 51.2-51.2h716.8c28.16 0 51.2 22.9376 51.2 51.2 0 28.0576-23.04 51.2-51.2 51.2z m0-256h-716.8A51.4048 51.4048 0 0 1 204.8 512c0-28.16 23.04-51.2 51.2-51.2h716.8c28.16 0 51.2 23.04 51.2 51.2a51.5072 51.5072 0 0 1-51.2 51.2z" p-id="5132"></path></svg>