<?xml version="1.0" encoding="UTF-8"?>
<svg width="12px" height="12px" viewBox="0 0 12 12" version="1.1" xmlns="http://www.w3.org/2000/svg" xmlns:xlink="http://www.w3.org/1999/xlink">
    <!-- Generator: Sketch 59 (86127) - https://sketch.com -->
    <title>icon/API管理备份 8</title>
    <desc>Created with Sketch.</desc>
    <g id="UI规范说明+UE交互说明+切图" stroke="none" stroke-width="1" fill="none" fill-rule="evenodd">
        <g id="切图" transform="translate(-1247.000000, -85.000000)" fill="#E1543E">
            <g id="icon/警示" transform="translate(1245.000000, 83.000000)">
                <path d="M13.8840108,12.0392365 L8.74150894,3.12739752 C8.41194941,2.55753416 7.58805059,2.55753416 7.26535688,3.12739752 L2.11598922,12.0392365 C1.78642969,12.6090998 2.1983791,13.3231455 2.85749816,13.3231455 L13.1425018,13.3231455 C13.8016209,13.3162797 14.2135703,12.6090998 13.8840108,12.0392365 L13.8840108,12.0392365 Z M7.60864806,6.39552952 C7.60864806,6.17582317 7.78715947,6.00417758 8,6.00417758 C8.21970635,6.00417758 8.39135194,6.18268899 8.39135194,6.39552952 L8.39135194,10.3914388 C8.39135194,10.6111452 8.21284053,10.7827908 8,10.7827908 C7.78029365,10.7827908 7.60864806,10.6042794 7.60864806,10.3914388 L7.60864806,6.39552952 L7.60864806,6.39552952 Z M8,12.0323707 C7.78029365,12.0323707 7.59491641,11.8538592 7.59491641,11.6272871 C7.59491641,11.4075807 7.77342782,11.2222035 8,11.2222035 C8.21970635,11.2222035 8.40508359,11.4007149 8.40508359,11.6272871 C8.40508359,11.8538592 8.21970635,12.0323707 8,12.0323707 Z" id="形状"></path>
            </g>
        </g>
    </g>
</svg>